<svg width="102" height="101" viewBox="0 0 102 101" fill="none" xmlns="http://www.w3.org/2000/svg">
<path d="M0.0771484 65.7482V1.25193H21.7834V10.9922H9.56815V28.3667H18.3561V37.8437H9.56815V56.0079H21.7834V65.7482H0.0771484Z" fill="#E4A82D"/>
<path d="M24.0334 65.7482V1.25193H33.5244V56.9732H46.0912V65.7482H24.0334Z" fill="#E4A82D"/>
<path d="M44.438 65.7482L54.1926 1.25193H65.7927L75.5473 65.7482H66.32L64.5624 52.5857H55.4229L53.6653 65.7482H44.438ZM56.7411 42.5822H63.2442L60.5199 20.9079L60.2563 17.4857H59.729L59.4654 20.9079L56.7411 42.5822Z" fill="#E4A82D"/>
<path d="M88.741 66.4502C86.1339 66.4502 83.9662 66.026 82.2379 65.1778C80.5096 64.3003 79.1475 63.0425 78.1515 61.4045C77.1555 59.7665 76.4379 57.7922 75.9985 55.4814C75.5884 53.1707 75.3833 50.5674 75.3833 47.6717L84.6986 46.7942C84.6986 48.1982 84.7425 49.5583 84.8304 50.8745C84.9475 52.1615 85.138 53.3315 85.4016 54.3845C85.6945 55.4083 86.1046 56.2273 86.6319 56.8415C87.1885 57.4558 87.8915 57.7629 88.741 57.7629C90.1471 57.7629 91.1431 57.1194 91.7289 55.8324C92.3148 54.5162 92.6077 52.9367 92.6077 51.0939C92.6077 49.2512 92.1244 47.3353 91.1577 45.3463C90.191 43.3573 89.034 41.4707 87.6865 39.6864C85.4016 36.6444 83.395 33.8218 81.6667 31.2185C79.9677 28.6153 78.6349 26.0559 77.6682 23.5404C76.7308 21.0249 76.2621 18.3924 76.2621 15.6429C76.2621 13.4784 76.5404 11.4894 77.097 9.67592C77.6535 7.83317 78.4591 6.23905 79.5137 4.89355C80.5975 3.5188 81.901 2.45118 83.4243 1.69068C84.9475 0.930177 86.6905 0.549927 88.6531 0.549927C91.0845 0.549927 93.135 0.959427 94.8047 1.77843C96.5037 2.59743 97.8659 3.76743 98.8911 5.28843C99.9457 6.80943 100.707 8.62292 101.176 10.7289C101.674 12.8057 101.923 15.1164 101.923 17.6612L92.6077 18.5387C92.6077 17.4564 92.5491 16.3742 92.432 15.2919C92.3441 14.1804 92.1683 13.1713 91.9047 12.2645C91.641 11.3578 91.2602 10.6266 90.7623 10.0708C90.2643 9.51505 89.6198 9.23717 88.8289 9.23717C87.5986 9.23717 86.7491 9.76367 86.2804 10.8167C85.8117 11.8404 85.5773 13.3029 85.5773 15.2042C85.5773 17.6612 86.2365 20.0304 87.5546 22.3119C88.8728 24.5934 90.6451 27.2552 92.8714 30.2972C95.537 33.8949 97.7047 37.2002 99.3745 40.2129C101.073 43.2257 101.923 46.5602 101.923 50.2164C101.923 52.5272 101.674 54.677 101.176 56.666C100.678 58.6258 99.8871 60.3369 98.8032 61.7994C97.7487 63.2619 96.3865 64.4027 94.7168 65.2217C93.0764 66.0407 91.0845 66.4502 88.741 66.4502Z" fill="#E4A82D"/>
<path d="M11.5004 97.4501L6.54794 86.267H7.826L12.459 96.7951H11.756L16.421 86.267H17.6192L12.6667 97.4501H11.5004ZM29.4667 97.4501V86.267H30.6489V97.4501H29.4667ZM47.5665 97.4501L42.614 86.267H43.892L48.525 96.7951H47.8221L52.487 86.267H53.6852L48.7327 97.4501H47.5665ZM63.4002 97.4501L68.5125 86.267H69.6787L74.791 97.4501H73.5449L68.848 86.954H69.3273L64.6304 97.4501H63.4002ZM65.4132 94.4626L65.7647 93.504H72.2668L72.6183 94.4626H65.4132ZM89.9488 97.5459C89.1181 97.5459 88.3193 97.4128 87.5524 97.1465C86.7962 96.8696 86.2105 96.5182 85.7951 96.0921L86.2584 95.1815C86.6525 95.5649 87.1797 95.8898 87.84 96.156C88.511 96.4116 89.2139 96.5395 89.9488 96.5395C90.6517 96.5395 91.2215 96.4542 91.6582 96.2838C92.1055 96.1028 92.4304 95.8631 92.6327 95.5649C92.8457 95.2667 92.9522 94.9365 92.9522 94.5744C92.9522 94.1378 92.8244 93.7863 92.5688 93.52C92.3239 93.2538 91.999 93.0461 91.5943 92.897C91.1896 92.7372 90.7423 92.5988 90.2523 92.4816C89.7624 92.3644 89.2725 92.242 88.7826 92.1142C88.2926 91.9757 87.84 91.7946 87.4246 91.571C87.0199 91.3473 86.6897 91.0544 86.4341 90.6923C86.1892 90.3195 86.0667 89.8349 86.0667 89.2385C86.0667 88.6847 86.2105 88.1788 86.498 87.7208C86.7962 87.2522 87.2489 86.8794 87.856 86.6025C88.463 86.3149 89.2405 86.1711 90.1884 86.1711C90.8168 86.1711 91.4399 86.2617 92.0576 86.4427C92.6753 86.6131 93.2079 86.8528 93.6552 87.1616L93.2558 88.1042C92.7765 87.7847 92.2653 87.5504 91.7221 87.4013C91.1896 87.2522 90.673 87.1776 90.1725 87.1776C89.5015 87.1776 88.9476 87.2682 88.511 87.4492C88.0743 87.6303 87.7495 87.8752 87.5364 88.1841C87.3341 88.4823 87.2329 88.8231 87.2329 89.2066C87.2329 89.6432 87.3554 89.9947 87.6004 90.261C87.856 90.5272 88.1861 90.7349 88.5909 90.884C89.0062 91.0331 89.4589 91.1663 89.9488 91.2834C90.4387 91.4006 90.9233 91.5284 91.4026 91.6668C91.8925 91.8053 92.3398 91.9863 92.7446 92.21C93.1599 92.423 93.4901 92.7106 93.7351 93.0727C93.9907 93.4348 94.1185 93.9088 94.1185 94.4945C94.1185 95.0377 93.9694 95.5436 93.6712 96.0122C93.3729 96.4702 92.915 96.843 92.2972 97.1306C91.6902 97.4075 90.9073 97.5459 89.9488 97.5459Z" fill="#3C5A74"/>
</svg>
